<?xml version="1.0" encoding="utf-8"?>
<!-- Generator: Adobe Illustrator 26.0.3, SVG Export Plug-In . SVG Version: 6.00 Build 0)  -->
<svg version="1.2" baseProfile="tiny" id="Layer_1" xmlns="http://www.w3.org/2000/svg" xmlns:xlink="http://www.w3.org/1999/xlink"
	 x="0px" y="0px" viewBox="0 0 180 180" overflow="visible" xml:space="preserve">
<g>
	<path fill="none" stroke="#C48F56" stroke-width="5" stroke-miterlimit="10" d="M66.4,83.6l2.2-6c1-2.8,3.7-4.6,6.7-4.6h38.2
		c3,0,5.7,1.9,6.7,4.8l4,11.5"/>
	<path fill="none" stroke="#C48F56" stroke-width="5" stroke-miterlimit="10" d="M132.8,154.4H47.2c-4.5,0-8.1-3.6-8.1-8.1v-49
		c0-4.5,3.6-8.1,8.1-8.1h85.5c4.5,0,8.1,3.6,8.1,8.1v49C140.8,150.8,137.2,154.4,132.8,154.4z"/>
	<circle fill="none" stroke="#C48F56" stroke-width="5" stroke-miterlimit="10" cx="93.7" cy="121.8" r="23.9"/>
	<circle fill="none" stroke="#C48F56" stroke-width="5" stroke-miterlimit="10" cx="93.7" cy="121.8" r="14"/>
	<line fill="none" stroke="#C48F56" stroke-width="5" stroke-miterlimit="10" x1="55.5" y1="143.8" x2="55.5" y2="90.7"/>
	<line fill="none" stroke="#C48F56" stroke-width="5" stroke-miterlimit="10" x1="42.7" y1="81.1" x2="52.3" y2="81.1"/>
	<line fill="none" stroke="#C48F56" stroke-width="5" stroke-miterlimit="10" x1="47.5" y1="97.9" x2="47.5" y2="102"/>
	<g>
		<line fill="none" stroke="#C48F56" stroke-width="5" stroke-miterlimit="10" x1="121.1" y1="31.6" x2="126.3" y2="26.5"/>
		<line fill="none" stroke="#C48F56" stroke-width="5" stroke-miterlimit="10" x1="126.3" y1="51.1" x2="121.1" y2="46"/>
		<line fill="none" stroke="#C48F56" stroke-width="5" stroke-miterlimit="10" x1="124.8" y1="38.8" x2="132" y2="38.8"/>
	</g>
	<g>
		<line fill="none" stroke="#C48F56" stroke-width="5" stroke-miterlimit="10" x1="66.5" y1="46" x2="61.4" y2="51.1"/>
		<line fill="none" stroke="#C48F56" stroke-width="5" stroke-miterlimit="10" x1="61.4" y1="26.5" x2="66.5" y2="31.6"/>
		<line fill="none" stroke="#C48F56" stroke-width="5" stroke-miterlimit="10" x1="62.9" y1="38.7" x2="55.6" y2="38.7"/>
	</g>
	<rect x="74.6" y="25.6" fill="none" stroke="#C48F56" stroke-width="5" stroke-miterlimit="10" width="38.8" height="24.4"/>
	<g>
		<circle fill="none" stroke="#C48F56" stroke-width="5" stroke-miterlimit="10" cx="83.9" cy="37.8" r="1"/>
		<circle fill="none" stroke="#C48F56" stroke-width="5" stroke-miterlimit="10" cx="93.9" cy="37.8" r="1"/>
		<circle fill="none" stroke="#C48F56" stroke-width="5" stroke-miterlimit="10" cx="104" cy="37.8" r="1"/>
	</g>
	<path fill="none" stroke="#C48F56" stroke-width="5" stroke-miterlimit="10" d="M106.6,51v9.8c0,2.9-2.4,5.3-5.3,5.3H88.1
		c-2.9,0-5.3-2.4-5.3-5.3V51"/>
</g>
</svg>
