<?xml version="1.0" encoding="utf-8"?>
<!-- Generator: Adobe Illustrator 26.0.3, SVG Export Plug-In . SVG Version: 6.00 Build 0)  -->
<svg version="1.2" baseProfile="tiny" id="Layer_1" xmlns="http://www.w3.org/2000/svg" xmlns:xlink="http://www.w3.org/1999/xlink"
	 x="0px" y="0px" viewBox="0 0 180 180" overflow="visible" xml:space="preserve">
<circle fill="none" stroke="#C48F56" stroke-width="5" stroke-miterlimit="10" cx="64.8" cy="90" r="44"/>
<circle fill="none" stroke="#C48F56" stroke-width="5" stroke-miterlimit="10" cx="64.8" cy="90" r="34.8"/>
<path fill="none" stroke="#C48F56" stroke-width="5" stroke-miterlimit="10" d="M40,90c0-13.7,11.1-24.8,24.8-24.8"/>
<path fill="none" stroke="#C48F56" stroke-width="5" stroke-miterlimit="10" d="M93.5,56.7C101.2,50,111.2,46,122.2,46
	c24.3,0,44,19.7,44,44s-19.7,44-44,44c-10.9,0-20.9-4-28.6-10.6"/>
<path fill="none" stroke="#C48F56" stroke-width="5" stroke-miterlimit="10" d="M99.8,63.3c6.1-5.1,13.9-8.1,22.4-8.1
	c19.2,0,34.8,15.6,34.8,34.8s-15.6,34.8-34.8,34.8c-8.5,0-16.3-3.1-22.4-8.1"/>
<path fill="none" stroke="#C48F56" stroke-width="5" stroke-miterlimit="10" d="M104.6,72.4c4.5-4.5,10.7-7.3,17.6-7.3"/>
</svg>
