<?xml version="1.0" encoding="utf-8"?>
<!-- Generator: Adobe Illustrator 26.0.3, SVG Export Plug-In . SVG Version: 6.00 Build 0)  -->
<svg version="1.2" baseProfile="tiny" id="Layer_1" xmlns="http://www.w3.org/2000/svg" xmlns:xlink="http://www.w3.org/1999/xlink"
	 x="0px" y="0px" viewBox="0 0 180 180" overflow="visible" xml:space="preserve">
<g>
	<path fill="none" stroke="#C48F56" stroke-width="5" stroke-miterlimit="10" d="M92.2,48.5H29.3c-2.8,0-5.1-2.3-5.1-5.1v0
		c0-2.8,2.3-5.1,5.1-5.1h62.9c2.8,0,5.1,2.3,5.1,5.1v0C97.3,46.3,95.1,48.5,92.2,48.5z"/>
	<path fill="none" stroke="#C48F56" stroke-width="5" stroke-miterlimit="10" d="M92.2,141.5H29.3c-2.8,0-5.1-2.3-5.1-5.1v0
		c0-2.8,2.3-5.1,5.1-5.1h62.9c2.8,0,5.1,2.3,5.1,5.1v0C97.3,139.2,95.1,141.5,92.2,141.5z"/>
	<line fill="none" stroke="#C48F56" stroke-width="5" stroke-miterlimit="10" x1="29.3" y1="48.5" x2="29.3" y2="131.3"/>
	<line fill="none" stroke="#C48F56" stroke-width="5" stroke-miterlimit="10" x1="91.9" y1="48.5" x2="91.9" y2="131.3"/>
	<line fill="none" stroke="#C48F56" stroke-width="5" stroke-miterlimit="10" x1="82.7" y1="58.5" x2="82.7" y2="121.2"/>
	<line fill="none" stroke="#C48F56" stroke-width="5" stroke-miterlimit="10" x1="48.3" y1="29.2" x2="73.2" y2="29.2"/>
	<line fill="none" stroke="#C48F56" stroke-width="5" stroke-miterlimit="10" x1="48.3" y1="150.8" x2="73.2" y2="150.8"/>
	<line fill="none" stroke="#C48F56" stroke-width="5" stroke-miterlimit="10" x1="101.7" y1="68.7" x2="146.1" y2="68.7"/>
	<path fill="none" stroke="#C48F56" stroke-width="5" stroke-miterlimit="10" d="M101.7,58.5h54.1v20c0,0-43.3,0.6-43.3,42.8h-10.9"
		/>
</g>
</svg>
