<?xml version="1.0" encoding="utf-8"?>
<!-- Generator: Adobe Illustrator 26.0.3, SVG Export Plug-In . SVG Version: 6.00 Build 0)  -->
<svg version="1.2" baseProfile="tiny" id="Layer_1" xmlns="http://www.w3.org/2000/svg" xmlns:xlink="http://www.w3.org/1999/xlink"
	 x="0px" y="0px" viewBox="0 0 461 120" overflow="visible" xml:space="preserve">
<g>
	<path fill="#FFFFFF" d="M31.7,54.6c2.1,1.8,3.2,4.5,3.2,8.3c0,3.7-1.1,6.4-3.3,8.2c-2.2,1.7-5.5,2.6-10,2.6h-5.5v9H11V51.9h10.5
		C26.2,51.9,29.6,52.8,31.7,54.6z M28,67.3c1-1.1,1.6-2.7,1.6-4.8c0-2.1-0.7-3.6-2-4.5c-1.3-0.9-3.4-1.3-6.2-1.3h-5.3v12.3h6
		C25,68.9,27,68.4,28,67.3z"/>
	<path fill="#FFFFFF" d="M45.4,82.7V51.9h5.2v13.3h15.3V51.9h5.2v30.7h-5.2V70.1H50.6v12.6H45.4z"/>
	<path fill="#FFFFFF" d="M194.2,56.7v26H189v-26h-9.3v-4.7h23.8v4.7H194.2z"/>
	<path fill="#FFFFFF" d="M238.4,78.4c-3.1,3-6.9,4.6-11.5,4.6c-4.6,0-8.4-1.5-11.5-4.6c-3.1-3-4.7-6.8-4.7-11.3s1.6-8.3,4.7-11.3
		c3.1-3,6.9-4.5,11.5-4.5c4.6,0,8.4,1.5,11.5,4.5c3.1,3,4.7,6.8,4.7,11.3S241.5,75.4,238.4,78.4z M234.6,59.2
		c-2.1-2.2-4.7-3.3-7.7-3.3c-3,0-5.6,1.1-7.7,3.3c-2.1,2.2-3.1,4.8-3.1,7.9c0,3.1,1,5.7,3.1,7.9c2.1,2.2,4.7,3.3,7.7,3.3
		c3,0,5.6-1.1,7.7-3.3c2.1-2.2,3.1-4.8,3.1-7.9C237.8,64,236.7,61.3,234.6,59.2z"/>
	<path fill="#FFFFFF" d="M275.3,67.7h5.2v10.5c-2.9,3.2-7,4.8-12.4,4.8c-4.5,0-8.3-1.5-11.4-4.5c-3.1-3-4.6-6.8-4.6-11.3
		c0-4.6,1.6-8.4,4.7-11.4c3.1-3,6.9-4.6,11.3-4.6c4.4,0,8.1,1.3,11,3.9l-2.8,4c-1.2-1-2.4-1.7-3.6-2.1c-1.2-0.4-2.6-0.6-4.2-0.6
		c-3.1,0-5.7,1-7.8,3c-2.1,2-3.2,4.6-3.2,7.9c0,3.3,1,5.9,3.1,7.9c2.1,2,4.5,3,7.5,3c2.9,0,5.4-0.6,7.3-1.9V67.7z"/>
	<path fill="#FFFFFF" d="M316.2,61.9c0,5.1-2.2,8.3-6.6,9.6l8,11.2h-6.6l-7.3-10.3h-6.8v10.3h-5.2V51.9h11.4c4.7,0,8,0.8,10.1,2.4
		C315.2,55.9,316.2,58.4,316.2,61.9z M309.3,66.3c1.1-0.9,1.6-2.4,1.6-4.4c0-2-0.5-3.4-1.6-4.1c-1.1-0.7-3-1.1-5.8-1.1h-6.6v11h6.5
		C306.3,67.6,308.3,67.2,309.3,66.3z"/>
	<path fill="#FFFFFF" d="M332.5,75.7l-3.1,7h-5.5l13.5-30.7h5.5l13.5,30.7h-5.5l-3.1-7H332.5z M345.7,70.9l-5.6-12.7l-5.6,12.7
		H345.7z"/>
	<path fill="#FFFFFF" d="M385.9,54.6c2.1,1.8,3.2,4.5,3.2,8.3c0,3.7-1.1,6.4-3.3,8.2c-2.2,1.7-5.5,2.6-10,2.6h-5.5v9h-5.2V51.9h10.5
		C380.3,51.9,383.7,52.8,385.9,54.6z M382.2,67.3c1-1.1,1.6-2.7,1.6-4.8c0-2.1-0.7-3.6-2-4.5c-1.3-0.9-3.4-1.3-6.2-1.3h-5.3v12.3h6
		C379.2,68.9,381.2,68.4,382.2,67.3z"/>
	<path fill="#FFFFFF" d="M399.6,82.7V51.9h5.2v13.3H420V51.9h5.2v30.7H420V70.1h-15.3v12.6H399.6z"/>
	<path fill="#FFFFFF" d="M450.2,82.7H445V70.5l-11.4-18.6h5.7l8.4,14l8.4-14h5.7l-11.4,18.6V82.7z"/>
</g>
<path fill="#C48F56" d="M149.9,47.6c-1.8-8-6.7-14.9-13.7-19.3c-7-4.4-15.2-5.8-23.3-4c-8,1.8-14.9,6.7-19.3,13.7
	c-4.4,7-5.8,15.2-4,23.3c3.3,14.3,16,24,30.1,24c2.3,0,4.6-0.2,6.8-0.8C143.2,80.7,153.7,64.2,149.9,47.6z M124.9,77.1
	c-12.5,2.8-25-5-27.8-17.5c-1.4-6.1-0.3-12.3,3-17.5c3.3-5.3,8.5-8.9,14.5-10.3c1.7-0.4,3.5-0.6,5.2-0.6c4.3,0,8.6,1.2,12.3,3.6
	c5.3,3.3,8.9,8.5,10.3,14.5C145.3,61.7,137.4,74.2,124.9,77.1z"/>
<path fill="#C48F56" d="M115.4,34.9l0.4,1.9c4.7-1.1,9.6-0.2,13.7,2.3l1-1.6C125.9,34.6,120.6,33.7,115.4,34.9z"/>
<path fill="#C48F56" d="M175.3,68.5L164,19c-0.6-2.4-2-4.5-4.1-5.8c-2.1-1.3-4.6-1.8-7-1.2l-5.1,1.2l-0.5-2.4
	c-0.3-1.5-1.8-2.5-3.4-2.1l-3.8,0.9c-1.5,0.3-2.5,1.9-2.1,3.4l0.5,2.4l-6.2,1.4c-6.8-2.3-14.2-2.7-21.4-1
	c-7.2,1.6-13.7,5.2-18.8,10.2L51.3,35c-4.5,1-7.2,5.9-6.1,10.9l4.7-1.1c-0.6-2.4,0.6-4.8,2.5-5.2L87,31.8c-0.3,0.5-0.6,0.9-0.9,1.4
	c-5.7,9-7.5,19.7-5.1,30c2.4,10.4,8.6,19.2,17.6,24.9c6.4,4.1,13.7,6.1,21.1,6.1c3,0,5.9-0.3,8.9-1c6.3-1.4,12.1-4.3,16.9-8.4
	l22.8-5.2C173.3,78.5,176.4,73.5,175.3,68.5z M127.6,88.6c-9.1,2.1-18.5,0.5-26.4-4.5c-7.9-5-13.4-12.8-15.5-21.9
	c-2.1-9.1-0.5-18.5,4.5-26.4c5-7.9,12.8-13.4,21.9-15.5c2.6-0.6,5.2-0.9,7.8-0.9c6.5,0,12.9,1.8,18.6,5.4c7.9,5,13.4,12.8,15.5,21.9
	c2.1,9.1,0.5,18.5-4.5,26.4C144.5,81,136.7,86.5,127.6,88.6z M167.2,75l-15.8,3.6c0.7-1,1.4-2,2.1-3c5.7-9,7.5-19.7,5.1-30
	c-2.4-10.4-8.6-19.2-17.6-24.9c-0.5-0.3-1-0.6-1.4-0.9l14.4-3.3c1.2-0.3,2.4-0.1,3.4,0.6s1.7,1.7,2,2.8l11.3,49.6
	C171.2,72,169.7,74.5,167.2,75z"/>
</svg>
